<svg xmlns="http://www.w3.org/2000/svg" xmlns:xlink="http://www.w3.org/1999/xlink" width="191" height="191" viewBox="0 0 191 191"><defs><style>.a{isolation:isolate;}.b{fill:url(#a);}.c{fill:url(#b);}.d{fill:#2941d3;mix-blend-mode:hue;}.e{mix-blend-mode:screen;}.f{fill:url(#c);}.g{fill:url(#d);}</style><radialGradient id="a" cx="58.088" cy="697.3919" r="375.0706" gradientTransform="translate(747.5087 -350.6097) rotate(66.9579)" gradientUnits="userSpaceOnUse"><stop offset="0" stop-color="#fff"/><stop offset="0.0642" stop-color="#d9d9d9"/><stop offset="0.1608" stop-color="#a7a7a7"/><stop offset="0.2621" stop-color="#7a7a7a"/><stop offset="0.3663" stop-color="#545454"/><stop offset="0.4741" stop-color="#363636"/><stop offset="0.5866" stop-color="#1e1e1e"/><stop offset="0.7058" stop-color="#0d0d0d"/><stop offset="0.8364" stop-color="#030303"/><stop offset="1"/></radialGradient><radialGradient id="b" cx="85.371" cy="301.4353" r="350.8541" gradientTransform="translate(318.3473 -289.496) rotate(43.7844)" gradientUnits="userSpaceOnUse"><stop offset="0.006" stop-color="#fff"/><stop offset="0.0069" stop-color="#fffdfe"/><stop offset="0.0304" stop-color="#ffcbf2"/><stop offset="0.0545" stop-color="#ffa0e8"/><stop offset="0.0787" stop-color="#ff7ddf"/><stop offset="0.103" stop-color="#ff62d9"/><stop offset="0.1276" stop-color="#ff4ed4"/><stop offset="0.1526" stop-color="#ff43d1"/><stop offset="0.1786" stop-color="#ff3fd0"/><stop offset="0.2152" stop-color="#f83ac6"/><stop offset="0.2768" stop-color="#e52eac"/><stop offset="0.3559" stop-color="#c71a81"/><stop offset="0.4439" stop-color="#9f004a"/><stop offset="0.4478" stop-color="#9d0049"/><stop offset="0.5462" stop-color="#65002f"/><stop offset="0.6375" stop-color="#39001b"/><stop offset="0.719" stop-color="#1a000c"/><stop offset="0.7877" stop-color="#070003"/><stop offset="0.8352"/><stop offset="0.8887" stop-color="#00000d"/><stop offset="1" stop-color="#000026"/></radialGradient><radialGradient id="c" cx="94.0822" cy="328.9394" r="206.0701" gradientTransform="translate(318.3473 -289.496) rotate(43.7844)" xlink:href="#a"/><radialGradient id="d" cx="98.9638" cy="349.9354" r="70.3816" gradientTransform="translate(318.3473 -289.496) rotate(43.7844)" xlink:href="#a"/></defs><title>btnbubble</title><g class="a"><path class="b" d="M132.2772,182.1706A94.3381,94.3381,0,1,1,182.1747,58.443,94.3144,94.3144,0,0,1,132.2772,182.1706Z"/><path class="c" d="M42.0838,157.112C8.6873,129.1618,5.0282,78.3932,33.992,43.7673c28.9737-34.5518,79.54-39.9288,113.0625-11.8457,33.4287,28.0185,37.0127,78.7451,8.0391,113.3183C126.077,179.8073,75.4793,185.11,42.0838,157.112Z"/><path class="d" d="M42.0838,156.112C8.6873,128.1618,5.0282,77.3932,33.992,42.7673c28.9737-34.5518,79.54-39.9288,113.0625-11.8457,33.4287,28.0185,37.0127,78.7451,8.0391,113.3183C126.077,178.8073,75.4793,184.11,42.0838,156.112Z"/><path class="d" d="M42.0838,158.112C8.6873,130.1618,5.0282,79.3932,33.992,44.7673c28.9737-34.5518,79.54-39.9288,113.0625-11.8457,33.4287,28.0185,37.0127,78.7451,8.0391,113.3183C126.077,180.8073,75.4793,186.11,42.0838,158.112Z"/><g class="e"><path class="f" d="M82.7332,112.8757c-19.6621-16.46-21.7617-46.2618-4.7822-66.5918,17.042-20.2989,46.7481-23.48,66.378-6.9786,19.6523,16.4493,21.7734,46.25,4.7832,66.6026C132.0487,126.1852,102.3426,129.2926,82.7332,112.8757Z"/></g><g class="e"><path class="g" d="M121.7293,65.6813a16.393,16.393,0,0,1,21.0625-25.1035c6.7022,5.6211,7.4131,15.792,1.6114,22.7383C138.55,70.23,128.4325,71.3122,121.7293,65.6813Z"/></g></g></svg>